<?xml version="1.0" encoding="UTF-8"?>
<svg version="1.1" xmlns="http://www.w3.org/2000/svg" width="1080" height="1080">
<path d="M0 0 C0.33 164.34 0.66 328.68 1 498 C2.65 491.4 4.3 484.8 6 478 C7.15820188 474.39111008 8.29911671 470.94038362 9.6875 467.4375 C10.19168457 466.14827637 10.19168457 466.14827637 10.70605469 464.83300781 C19.00977384 444.1758979 30.6859227 426.1186698 46 410 C47.17333723 408.63068782 48.34053966 407.25608213 49.5 405.875 C77.7417208 373.72889383 122.25179281 356.37010736 164.01171875 352.921875 C165.07177124 352.83212402 166.13182373 352.74237305 167.22399902 352.64990234 C169.81580337 352.43081491 172.40779116 352.21423906 175 352 C174.10232879 351.10693775 173.20465757 350.2138755 172.2797842 349.29375076 C150.98906589 328.11123557 129.71122203 306.91588137 108.44921964 285.70454629 C105.83432401 283.09590447 103.21931964 280.48737168 100.60424805 277.87890625 C100.08361877 277.35958852 99.56298949 276.84027079 99.02658356 276.30521616 C90.5875679 267.88797892 82.13976646 259.47961239 73.68870621 251.07447019 C65.02245332 242.45491421 56.3656611 233.82594215 47.7176457 225.18808818 C42.37762379 219.85493949 37.03029013 214.52934259 31.67347682 209.21305916 C27.57214159 205.14118667 23.48399219 201.05628343 19.40074348 196.96628189 C17.71958428 195.28650416 16.03409967 193.61104317 14.34411621 191.94014359 C12.04625353 189.66697446 9.76412661 187.37911623 7.48545837 185.08673096 C6.80552053 184.42135732 6.12558268 183.75598368 5.42504066 183.07044721 C4.82092088 182.45637218 4.2168011 181.84229716 3.59437466 181.2096138 C3.06542424 180.68256198 2.53647382 180.15551016 1.9914946 179.61248708 C1 178 1 178 1.16102052 176.00017458 C2.10208576 173.75662178 3.11427266 172.50773998 4.82929707 170.78759289 C5.43493215 170.17290116 6.04056723 169.55820944 6.66455489 168.9248907 C7.33593858 168.25883494 8.00732226 167.59277918 8.6990509 166.90653992 C9.76190631 165.83454785 9.76190631 165.83454785 10.84623355 164.74089938 C13.23125735 162.33917698 15.62692563 159.94836307 18.02270508 157.55737305 C19.7312373 155.84150465 21.43914392 154.12501313 23.14646912 152.40794373 C27.30933286 148.2251258 31.47932128 144.04949732 35.65306167 139.87753906 C39.04395037 136.48795703 42.43227573 133.09583336 45.81879234 129.70188332 C46.79357458 128.72500194 47.76835759 127.74812134 48.74314135 126.77124149 C49.22827886 126.28506045 49.71341637 125.79887942 50.21325501 125.29796562 C59.39073091 116.10158346 68.57816782 106.91520223 77.76850965 97.73168031 C86.1831093 89.32266014 94.58442015 80.90050327 102.97966532 72.47216418 C111.5945098 63.8236233 120.21855888 55.18435997 128.85258216 46.55496436 C133.70204063 41.70775421 138.54765461 36.85684023 143.38355446 31.99609947 C147.92818442 27.42832436 152.48560099 22.87357314 157.05201149 18.32756996 C158.7301589 16.65285158 160.40400801 14.97381392 162.07331467 13.2902832 C164.34423287 11.00134812 166.62983219 8.72819407 168.91999817 6.45854187 C169.91703545 5.44272782 169.91703545 5.44272782 170.93421489 4.40639228 C171.54767322 3.80473929 172.16113154 3.2030863 172.79317951 2.58320141 C173.31968926 2.05641928 173.846199 1.52963715 174.38866359 0.98689193 C176 -0 176 -0 178.0008015 0.1619966 C180.24199111 1.10143533 181.48044559 2.10757699 183.19399643 3.82485294 C183.80458806 4.42947143 184.41517969 5.03408991 185.04427409 5.65703017 C185.70575678 6.32725138 186.36723947 6.99747259 187.04876709 7.68800354 C187.75863935 8.39531252 188.46851161 9.10262151 189.19989514 9.8313641 C191.58544466 12.2119578 193.96008855 14.60314293 196.33496094 16.99438477 C198.03931854 18.69958825 199.74433634 20.40413207 201.44996643 22.10806274 C205.12505904 25.78247139 208.79550919 29.46145095 212.46181488 33.14462471 C217.76269343 38.46987584 223.07182849 43.78683181 228.38302055 49.10179435 C236.99966969 57.72501071 245.6095969 66.35490643 254.21533203 74.98901367 C262.57542486 83.37664007 270.93867735 91.76109518 279.30615234 100.14135742 C279.82710838 100.66311745 280.34806441 101.18487747 280.88480699 101.72244841 C285.41634378 106.26092366 289.94812074 110.79915906 294.47992134 115.33737087 C313.99627609 134.88195878 333.49681096 154.44225376 353 174 C353.33 117.24 353.66 60.48 354 2 C441.99261352 2 543.28650962 12.00068451 613 72 C614.12693579 72.94480821 615.25460089 73.88874689 616.3828125 74.83203125 C627.00911377 83.76591144 636.3379255 93.11807487 645 104 C645.65742187 104.79019531 646.31484375 105.58039063 646.9921875 106.39453125 C657.30073546 118.87656823 665.51936146 132.68261061 673 147 C673.3801123 147.72606445 673.76022461 148.45212891 674.15185547 149.20019531 C705.67684404 210.3354226 711.6621069 283.10074362 711.39111328 350.83398438 C711.37402307 355.13868239 711.38421767 359.44282319 711.40144348 363.74750233 C711.69833609 451.68370677 698.71688368 545.1026757 628.4375 626.8125 C623.23053342 631.9077291 617.73092129 636.50946989 612 641 C611.03835938 641.77859375 610.07671875 642.5571875 609.0859375 643.359375 C549.23620008 690.93612829 472.88980719 703.24419677 399 710 C399.91249512 710.06469482 400.82499023 710.12938965 401.76513672 710.19604492 C474.56851673 715.4858003 552.06660354 729.25858996 610 777 C611.01578125 777.81339844 612.0315625 778.62679687 613.078125 779.46484375 C626.75279458 790.56677819 639.3699909 803.12289507 649.78222656 817.34667969 C650.96314675 818.94996588 652.18032465 820.52634816 653.3984375 822.1015625 C690.10111142 870.32361897 703.47503871 933.91263706 709 993 C709.10441406 994.10585449 709.20882813 995.21170898 709.31640625 996.35107422 C710.7942569 1012.75942553 711.11004105 1029.04163665 711.05078125 1045.50390625 C711.04669431 1047.50231859 711.04298914 1049.50073174 711.03967285 1051.49914551 C711.03083732 1056.33278438 711.0168789 1061.1663828 711 1066 C638.5385396 1066.64396974 566.07923093 1067.09850064 493.61474609 1067.12939453 C492.36313497 1067.12994093 492.36313497 1067.12994093 491.08623878 1067.13049836 C469.21575106 1067.13979522 447.3452667 1067.13935423 425.47477784 1067.13529945 C412.46565379 1067.13293636 399.45653097 1067.13272304 386.44740677 1067.13381577 C385.0320256 1067.13393034 385.0320256 1067.13393034 383.58805087 1067.13404724 C379.75289891 1067.13435883 375.91774695 1067.13467726 372.08259498 1067.135007 C336.58792535 1067.13802195 301.0932583 1067.13536161 265.59858906 1067.1299101 C234.34518431 1067.12514653 203.09178363 1067.12561337 171.83837891 1067.13037109 C136.29722807 1067.13576416 100.75607946 1067.13782986 65.21492827 1067.13475883 C61.40704513 1067.13443833 57.59916198 1067.13412547 53.79127884 1067.13381577 C52.85443092 1067.13373669 51.917583 1067.13365761 50.95234575 1067.13357614 C37.94839591 1067.1325298 24.94444756 1067.1334178 11.94049792 1067.13580478 C-123.89683305 1067.16022537 -123.89683305 1067.16022537 -170.03385183 1066.70220861 C-172.44138739 1066.67990067 -174.84890909 1066.66228451 -177.25649381 1066.64625382 C-222.79904194 1066.32596327 -274.44903748 1061.99260171 -310 1030 C-310.59474121 1029.46955078 -311.18948242 1028.93910156 -311.80224609 1028.39257812 C-343.64037483 999.51289584 -356.19009012 956.85444715 -359 915 C-359.30888901 907.70767584 -359.33026835 900.4137676 -359.31567383 893.1159668 C-359.31252078 889.83413193 -359.33604822 886.55320832 -359.36132812 883.27148438 C-359.50077066 836.89185615 -347.51210824 791.90354589 -316 757 C-315.33355469 756.26136719 -314.66710937 755.52273438 -313.98046875 754.76171875 C-289.87699395 729.44038417 -256.30965329 718.66193066 -223 712 C-267.88 711.67 -312.76 711.34 -359 711 C-359 592.53 -359 474.06 -359 352 C-263.465 351.505 -263.465 351.505 -166 351 C-180.19 350.01 -194.38 349.02 -209 348 C-226.96987908 345.92655241 -244.47461038 343.40188497 -262 339 C-262.77085937 338.80825195 -263.54171875 338.61650391 -264.3359375 338.41894531 C-283.30009667 333.58641177 -300.84310951 325.45128891 -316 313 C-316.65613281 312.49082031 -317.31226563 311.98164063 -317.98828125 311.45703125 C-344.66624679 289.80457425 -352.14720736 252.28779589 -355.70141602 220.00488281 C-357.02607866 206.67377257 -357.18626595 193.41165706 -357.18530273 180.02490234 C-357.18747337 176.666209 -357.20564656 173.30785366 -357.22460938 169.94921875 C-357.33256155 128.87623829 -353.80579028 84.69877009 -328 51 C-327.19175781 49.91525391 -327.19175781 49.91525391 -326.3671875 48.80859375 C-300.20174423 16.26614546 -251.33976098 8.66063603 -212.5625 4.375 C-202.41162538 3.31798303 -192.24638148 2.52929086 -182.0625 1.875 C-180.88824463 1.79942871 -179.71398926 1.72385742 -178.50415039 1.64599609 C-119.12298968 -1.86683748 -59.31024296 0 0 0 Z M348.34296983 183.52328676 C347.67274862 184.1957387 347.00252741 184.86819063 346.31199646 185.5610199 C345.60468748 186.26676889 344.89737849 186.97251788 344.1686359 187.69965321 C341.77856296 190.08570983 339.39211303 192.47535817 337.00561523 194.86499023 C335.30126394 196.56798777 333.59669971 198.27077221 331.89193726 199.97335815 C327.73048245 204.13071187 323.57139253 208.29042222 319.41343503 212.45127302 C316.03571557 215.83124601 312.65702723 219.21024759 309.27763557 222.58854866 C308.79763357 223.06839743 308.31763157 223.5482462 307.82308405 224.04263585 C306.84812682 225.01727336 305.87316735 225.99190862 304.89820565 226.96654166 C295.74470609 236.11718604 286.59428061 245.2708995 277.44489283 254.42565484 C269.58519532 262.28982042 261.72287951 270.15136031 253.85864258 278.01098633 C244.73783014 287.12645366 235.61863396 296.24353287 226.50203091 305.36321026 C225.53087227 306.33468747 224.55971152 307.30616258 223.58854866 308.27763557 C222.87170453 308.99471112 222.87170453 308.99471112 222.14037869 309.72627304 C218.76395224 313.10356484 215.38636278 316.47969086 212.00832939 319.85537529 C207.46624292 324.39437292 202.92679741 328.93600081 198.38915634 333.4794426 C196.71780843 335.15211911 195.04559724 336.8239335 193.37248802 338.49484825 C191.09969005 340.76493863 188.82995496 343.03804614 186.5610199 345.31199646 C185.88856796 345.98221767 185.21611603 346.65243889 184.52328676 347.34296983 C181.46829889 349.79356216 181.46829889 349.79356216 180 353 C180.60658447 353.03440186 181.21316895 353.06880371 181.83813477 353.10424805 C228.24380267 355.9113057 269.01688172 371.90165971 303 404 C304.10408203 405.02480469 304.10408203 405.02480469 305.23046875 406.0703125 C330.12916399 429.95543253 345.97378449 462.53213289 353 496 C353.33 496 353.66 496 354 496 C354 391.39 354 286.78 354 179 C351.65059239 179 349.93653193 181.93659777 348.34296983 183.52328676 Z M-324 387 C-324 482.37 -324 577.74 -324 676 C-228.63 676 -133.26 676 -35 676 C-35 580.63 -35 485.26 -35 387 C-130.37 387 -225.74 387 -324 387 Z M0 560 C0 609.83 0 659.66 0 711 C-47.19 711 -94.38 711 -143 711 C-143 711.33 -143 711.66 -143 712 C-142.44352783 712.08975098 -141.88705566 712.17950195 -141.3137207 712.27197266 C-120.46181098 715.69577053 -101.00684568 720.63450137 -82 730 C-80.99066406 730.49137451 -80.99066406 730.49137451 -79.9609375 730.99267578 C-45.56910241 747.91042407 -21.5769682 778.41150603 -9.3046875 814.36499023 C-0.54773124 841.76792607 1.10636055 870.19350027 1.20532227 898.75048828 C1.21493395 900.54622608 1.22494576 902.34196177 1.23532104 904.13769531 C1.26202062 908.95051181 1.28321607 913.76333776 1.30332303 918.5761857 C1.32540196 923.62900355 1.352682 928.68179345 1.37937927 933.73458862 C1.4290134 943.27503536 1.47405907 952.81549786 1.51740164 962.35597503 C1.56702657 973.22923915 1.62184987 984.1024752 1.67708123 994.97571206 C1.79045095 1017.31711514 1.89738548 1039.6585451 2 1062 C4.09944861 1059.25149897 5.82334115 1056.60193669 7.36914062 1053.50463867 C7.81390747 1052.61818161 8.25867432 1051.73172455 8.71691895 1050.81840515 C9.19189819 1049.86126114 9.66687744 1048.90411713 10.15625 1047.91796875 C10.65862183 1046.91276688 11.16099365 1045.907565 11.67858887 1044.87190247 C12.74627928 1042.73349899 13.81202391 1040.59412306 14.87597656 1038.45385742 C16.46235104 1035.2632224 18.05480577 1032.07568711 19.6484375 1028.88867188 C24.66514477 1018.83736147 29.61703203 1008.76024076 34.4375 998.61328125 C41.15387763 984.48141185 48.20853113 970.52052783 55.23876953 956.54296875 C61.07782583 944.92734112 66.89454145 933.30798885 72.46875 921.5625 C79.06431187 907.66646082 85.99589593 893.93945578 92.90612793 880.19812012 C99.67584354 866.73444545 106.39644641 853.25711283 112.85778809 839.64233398 C119.110294 826.50689385 125.70237795 813.53865883 132.23876953 800.54296875 C138.60572228 787.87719736 144.90575996 775.19012777 150.98677063 762.3843689 C155.90214746 752.05525775 161.04158168 741.84066799 166.1875 731.625 C168.05827926 727.90999979 169.92638307 724.19367114 171.79296875 720.4765625 C172.21781052 719.63517731 172.64265228 718.79379211 173.08036804 717.9269104 C173.46529922 717.16035126 173.85023041 716.39379211 174.24682617 715.60400391 C174.58671066 714.92947174 174.92659515 714.25493958 175.27677917 713.55996704 C176.07010151 712.13536981 176.07010151 712.13536981 176 711 C175.36312256 710.96559814 174.72624512 710.93119629 174.07006836 710.89575195 C123.35413181 707.97061746 77.96891467 689.05025585 43.40625 651.15625 C41.18234109 648.49382384 39.07334128 645.78112383 37 643 C36.60506348 642.48002441 36.21012695 641.96004883 35.80322266 641.42431641 C17.51794669 617.2649401 6.14894586 589.80968656 1 560 C0.67 560 0.34 560 0 560 Z M353 568 C352.58041016 569.72669922 352.58041016 569.72669922 352.15234375 571.48828125 C344.37980049 602.69767524 330.80696311 630.17906499 309 654 C308.51337891 654.53189941 308.02675781 655.06379883 307.52539062 655.61181641 C273.29330001 692.4899192 227.11847798 708.14885663 178 711 C179.32764852 715.2577709 180.95307634 719.1551352 182.94790077 723.1418972 C183.24229711 723.73299756 183.53669344 724.32409792 183.84001088 724.93311042 C184.82564411 726.90966285 185.81694901 728.88331399 186.80825806 730.85702515 C187.5239162 732.28921378 188.23922264 733.72157819 188.95420778 735.15410292 C190.91856845 739.08729597 192.8879089 743.01797734 194.85806847 746.94826818 C196.98228367 751.18806389 199.10187636 755.43016963 201.22203064 759.67199707 C204.89552358 767.02003178 208.57194381 774.36659574 212.25035477 781.71216965 C217.56871955 792.33264704 222.88266631 802.95533002 228.19553642 813.57855697 C236.81537975 830.8138661 245.43879485 848.04738556 254.06445312 865.27978516 C262.44360585 882.01973334 270.82107816 898.7605207 279.19628906 915.50244141 C279.71251385 916.53436554 280.22873864 917.56628966 280.7606066 918.62948422 C283.35033718 923.8063353 285.9400347 928.98320292 288.52971578 934.16007876 C310.01468568 977.10928421 331.50545106 1020.05558781 353 1063 C353.33 1063 353.66 1063 354 1063 C354 899.65 354 736.3 354 568 C353.67 568 353.34 568 353 568 Z M176 798 C175.555354 798.91958496 175.11070801 799.83916992 174.65258789 800.78662109 C163.57836628 823.6724679 152.32079975 846.46098411 140.89477539 869.17333984 C136.035667 878.8442627 131.23654578 888.53566088 126.59375 898.3125 C119.86888028 912.47018448 112.80358187 926.45538903 105.76123047 940.45703125 C99.38289124 953.14545376 93.07158301 965.85532566 86.97917175 978.68374634 C82.23517152 988.65374328 77.2810563 998.51550666 72.3125 1008.375 C70.53546795 1011.90249876 68.76111863 1015.43132914 66.98828125 1018.9609375 C66.58531326 1019.75857513 66.18234528 1020.55621277 65.76716614 1021.37802124 C63.86108764 1024.54893254 63.86108764 1024.54893254 63 1028 C138.57 1028 214.14 1028 292 1028 C285.07710529 1013.32098049 285.07710529 1013.32098049 277.94496155 998.7494812 C277.50990986 997.8764067 277.07485817 997.0033322 276.62662309 996.10380089 C275.21002486 993.26213106 273.79072194 990.4218222 272.37133789 987.58154297 C271.33863671 985.51149812 270.3060892 983.44137661 269.27368164 981.3711853 C266.50136039 975.81357688 263.72648114 970.25724985 260.95076299 964.70133734 C259.21511136 961.2270849 257.47992332 957.7526013 255.74487114 954.27804947 C250.92913787 944.63451697 246.11273964 934.99131764 241.29354191 925.34951591 C240.98726194 924.73673641 240.68098197 924.1239569 240.36542078 923.49260832 C239.90503221 922.57150374 239.90503221 922.57150374 239.43534285 921.631791 C238.81358344 920.38782873 238.19182528 919.14386585 237.57006836 917.89990234 C237.10746773 916.97436895 237.10746773 916.97436895 236.63552164 916.03013791 C231.61181348 905.97875297 226.5935378 895.9246661 221.57751817 885.86944245 C216.41303814 875.51680571 211.24398654 865.16646403 206.07060426 854.81827271 C203.1714916 849.01899768 200.27434587 843.2187596 197.38194466 837.41613388 C194.67110753 831.9780727 191.95464813 826.54285867 189.2337265 821.10983658 C188.23428127 819.11172083 187.23690663 817.11256792 186.24170494 815.11233521 C184.88868121 812.3937039 183.52840938 809.67882699 182.16615295 806.96481323 C181.57127574 805.76297419 181.57127574 805.76297419 180.9643808 804.53685558 C179.21780706 800.59989582 179.21780706 800.59989582 176 798 Z " fill="#0D5B62" transform="translate(365,5)"/>
<path d="M0 0 C0 234.63 0 469.26 0 711 C-44.88 711.33 -89.76 711.66 -136 712 C-128.41 713.65 -120.82 715.3 -113 717 C-86.14334332 724.83319153 -62.90983164 737.35948009 -43 757 C-42.4313623 757.54382324 -41.86272461 758.08764648 -41.27685547 758.64794922 C-17.91414232 781.30907939 -5.94534501 814.49985756 -1 846 C-0.88962402 846.7002832 -0.77924805 847.40056641 -0.66552734 848.12207031 C1.89316056 864.97314564 2.15110873 881.98443224 2.12939453 898.99414062 C2.1307539 900.81618789 2.13253681 902.63823489 2.13470459 904.46028137 C2.13921008 909.34556457 2.13751952 914.23082634 2.1343255 919.11610985 C2.13177212 924.24671862 2.13414709 929.37732571 2.13571167 934.50793457 C2.1375221 943.10148444 2.135154 951.69502566 2.13037109 960.28857422 C2.12490285 970.22843247 2.12671411 980.16827029 2.1321975 990.10812807 C2.13672779 998.66301794 2.13738043 1007.21790166 2.13475883 1015.77279234 C2.13319915 1020.8743546 2.13299443 1025.97590723 2.13629532 1031.07746887 C2.13917372 1035.85792189 2.13719896 1040.63834831 2.13140106 1045.41879845 C2.13007449 1047.17566064 2.13046585 1048.93252505 2.13266373 1050.68938637 C2.13537853 1053.07872151 2.13199036 1055.46797024 2.12698364 1057.8572998 C2.12921436 1058.5590214 2.13144509 1059.260743 2.13374341 1059.98372889 C2.11415198 1064.77169605 2.11415198 1064.77169605 1 1067 C-120.4965965 1067.19663674 -120.4965965 1067.19663674 -168.1476326 1066.71085739 C-170.59009834 1066.68782906 -173.03254712 1066.67000176 -175.47506714 1066.65383911 C-221.64712218 1066.33366838 -273.90825109 1062.47925981 -310 1030 C-310.59474121 1029.46955078 -311.18948242 1028.93910156 -311.80224609 1028.39257812 C-343.64037483 999.51289584 -356.19009012 956.85444715 -359 915 C-359.30888901 907.70767584 -359.33026835 900.4137676 -359.31567383 893.1159668 C-359.31252078 889.83413193 -359.33604822 886.55320832 -359.36132812 883.27148438 C-359.50077066 836.89185615 -347.51210824 791.90354589 -316 757 C-315.33355469 756.26136719 -314.66710937 755.52273438 -313.98046875 754.76171875 C-289.87699395 729.44038417 -256.30965329 718.66193066 -223 712 C-267.88 711.67 -312.76 711.34 -359 711 C-359 592.53 -359 474.06 -359 352 C-263.465 351.505 -263.465 351.505 -166 351 C-180.19 350.01 -194.38 349.02 -209 348 C-226.96987908 345.92655241 -244.47461038 343.40188497 -262 339 C-262.77085937 338.80825195 -263.54171875 338.61650391 -264.3359375 338.41894531 C-283.30009667 333.58641177 -300.84310951 325.45128891 -316 313 C-316.65613281 312.49082031 -317.31226563 311.98164063 -317.98828125 311.45703125 C-344.66624679 289.80457425 -352.14720736 252.28779589 -355.70141602 220.00488281 C-357.02607866 206.67377257 -357.18626595 193.41165706 -357.18530273 180.02490234 C-357.18747337 176.666209 -357.20564656 173.30785366 -357.22460938 169.94921875 C-357.33256155 128.87623829 -353.80579028 84.69877009 -328 51 C-327.19175781 49.91525391 -327.19175781 49.91525391 -326.3671875 48.80859375 C-300.20174423 16.26614546 -251.33976098 8.66063603 -212.5625 4.375 C-202.41162538 3.31798303 -192.24638148 2.52929086 -182.0625 1.875 C-180.88824463 1.79942871 -179.71398926 1.72385742 -178.50415039 1.64599609 C-119.12298968 -1.86683748 -59.31024296 0 0 0 Z M-324 387 C-324 482.37 -324 577.74 -324 676 C-228.63 676 -133.26 676 -35 676 C-35 580.63 -35 485.26 -35 387 C-130.37 387 -225.74 387 -324 387 Z " fill="#30282F" transform="translate(365,5)"/>
<path d="M0 0 C0.7827832 -0.00067474 1.56556641 -0.00134949 2.37207031 -0.00204468 C14.56525715 0.01464422 26.31243701 0.57143021 38.25 3.25 C39.02085937 3.41628906 39.79171875 3.58257812 40.5859375 3.75390625 C87.34814153 14.10291862 127.60816433 43.35711378 153.375 83.4375 C163.33223208 99.36683877 170.4309241 116.08417205 175.25 134.25 C175.60143066 135.50941406 175.95286133 136.76882813 176.31494141 138.06640625 C177.82385586 145.01768769 177.59973481 152.13242055 177.62109375 159.2109375 C177.63008687 160.76681592 177.63920908 162.3226936 177.64845276 163.87857056 C177.66487954 167.13472576 177.67263006 170.39077903 177.67553711 173.64697266 C177.67982574 176.94808328 177.70055332 180.24840664 177.73706055 183.54931641 C178.11385956 218.23192163 178.11385956 218.23192163 172.25 234.25 C171.6935368 236.0311021 171.13745868 237.81232463 170.58203125 239.59375 C170.0886546 240.98389806 169.58248859 242.36958557 169.0625 243.75 C168.77407227 244.51932861 168.48564453 245.28865723 168.18847656 246.08129883 C151.06559018 290.18123009 115.67685664 325.23182392 72.75390625 344.37109375 C49.47307199 354.31615418 26.5700461 358.25 1.25 358.25 C59 473.75 116.75 589.25 176.25 708.25 C176.58 592.42 176.91 476.59 177.25 357.25 C264.62410199 357.25 362.76055818 366.1614785 433.25 424.25 C434.26578125 425.06339844 435.2815625 425.87679688 436.328125 426.71484375 C450.00279458 437.81677819 462.6199909 450.37289507 473.03222656 464.59667969 C474.21314675 466.19996588 475.43032465 467.77634816 476.6484375 469.3515625 C513.35111142 517.57361897 526.72503871 581.16263706 532.25 640.25 C532.35441406 641.35585449 532.45882812 642.46170898 532.56640625 643.60107422 C534.0442569 660.00942553 534.36004105 676.29163665 534.30078125 692.75390625 C534.29669431 694.75231859 534.29298914 696.75073174 534.28967285 698.74914551 C534.28083732 703.58278438 534.2668789 708.4163828 534.25 713.25 C465.18516783 713.84404374 396.12162588 714.3480524 327.05395508 714.36352539 C326.0011595 714.36377458 326.0011595 714.36377458 324.92709532 714.3640288 C307.47774118 714.36792486 290.02839302 714.36320946 272.57904099 714.35463549 C261.07473956 714.34898273 249.57044009 714.34587115 238.06613731 714.34487724 C237.28408811 714.3448085 236.50203891 714.34473976 235.69629125 714.34466894 C231.71937086 714.34433028 227.74245047 714.34402902 223.76553007 714.34374207 C196.11248398 714.34168094 168.4594409 714.33505846 140.80639648 714.32543945 C114.06160497 714.31614761 87.3168143 714.30911791 60.57202148 714.30493164 C59.7371977 714.30480011 58.90237391 714.30466859 58.04225243 714.30453308 C49.65317823 714.30321375 41.26410401 714.30193806 32.8750298 714.30069422 C15.80883228 714.29816284 -1.25736518 714.29534161 -18.32356262 714.29234314 C-19.10701349 714.29220585 -19.89046436 714.29206856 -20.69765617 714.29192711 C-72.38177205 714.28283709 -124.06588618 714.26698535 -175.75 714.25 C-175.27654513 712.80676485 -174.80112181 711.36417535 -174.32486725 709.92186165 C-174.06032698 709.11845097 -173.79578671 708.31504029 -173.52323008 707.48728383 C-172.64631701 704.95000095 -171.59329515 702.581525 -170.38085938 700.18701172 C-169.93609253 699.30093231 -169.49132568 698.41485291 -169.03308105 697.50192261 C-168.55810181 696.57058502 -168.08312256 695.63924744 -167.59375 694.6796875 C-167.09137817 693.68156036 -166.58900635 692.68343323 -166.07141113 691.65505981 C-164.46998681 688.47545205 -162.86050787 685.30001507 -161.25 682.125 C-159.15296812 677.97821337 -157.0596178 673.82958536 -154.96875 669.6796875 C-154.44543091 668.64173035 -153.92211182 667.60377319 -153.38293457 666.53436279 C-149.9430091 659.68874327 -146.5969641 652.80421575 -143.3125 645.8828125 C-136.60074182 631.7419869 -129.54420808 617.77597395 -122.51123047 603.79296875 C-116.67217417 592.17734112 -110.85545855 580.55798885 -105.28125 568.8125 C-98.68568813 554.91646082 -91.75410407 541.18945578 -84.84387207 527.44812012 C-78.07415646 513.98444545 -71.35355359 500.50711283 -64.89221191 486.89233398 C-58.639706 473.75689385 -52.04762205 460.78865883 -45.51123047 447.79296875 C-39.1449197 435.12847445 -32.84472672 422.44284995 -26.76322937 409.63890076 C-21.83949014 399.2917101 -16.70610799 389.05167876 -11.5625 378.8125 C-10.60071891 376.89397672 -9.63912985 374.97535717 -8.67773438 373.05664062 C-6.37068347 368.45332334 -4.061102 363.85128467 -1.75 359.25 C-2.43548416 359.20685165 -3.12096832 359.16370331 -3.82722473 359.11924744 C-55.03175629 355.84996716 -100.60643339 336.18454602 -135.09912109 297.55566406 C-169.45336594 257.62402448 -180.83165357 208.6929987 -177.54785156 157.07226562 C-174.18916498 121.45751357 -157.46876965 85.67809244 -133.05078125 59.703125 C-131.04192611 57.56125568 -129.13869907 55.37197688 -127.25 53.125 C-96.1767575 17.75591752 -46.02223132 0.03554817 0 0 Z M-0.75 445.25 C-1.194646 446.16958496 -1.63929199 447.08916992 -2.09741211 448.03662109 C-13.17163372 470.9224679 -24.42920025 493.71098411 -35.85522461 516.42333984 C-40.714333 526.0942627 -45.51345422 535.78566088 -50.15625 545.5625 C-56.88111972 559.72018448 -63.94641813 573.70538903 -70.98876953 587.70703125 C-77.36710876 600.39545376 -83.67841699 613.10532566 -89.77082825 625.93374634 C-94.51482848 635.90374328 -99.4689437 645.76550666 -104.4375 655.625 C-106.21453205 659.15249876 -107.98888137 662.68132914 -109.76171875 666.2109375 C-110.16468674 667.00857513 -110.56765472 667.80621277 -110.98283386 668.62802124 C-112.88891236 671.79893254 -112.88891236 671.79893254 -113.75 675.25 C-38.18 675.25 37.39 675.25 115.25 675.25 C108.32710529 660.57098049 108.32710529 660.57098049 101.19496155 645.9994812 C100.75990986 645.1264067 100.32485817 644.2533322 99.87662309 643.35380089 C98.46002486 640.51213106 97.04072194 637.6718222 95.62133789 634.83154297 C94.58863671 632.76149812 93.5560892 630.69137661 92.52368164 628.6211853 C89.75136039 623.06357688 86.97648114 617.50724985 84.20076299 611.95133734 C82.46511136 608.4770849 80.72992332 605.0026013 78.99487114 601.52804947 C74.17913787 591.88451697 69.36273964 582.24131764 64.54354191 572.59951591 C64.23726194 571.98673641 63.93098197 571.3739569 63.61542078 570.74260832 C63.15503221 569.82150374 63.15503221 569.82150374 62.68534285 568.881791 C62.06358344 567.63782873 61.44182528 566.39386585 60.82006836 565.14990234 C60.35746773 564.22436895 60.35746773 564.22436895 59.88552164 563.28013791 C54.86181348 553.22875297 49.8435378 543.1746661 44.82751817 533.11944245 C39.66303814 522.76680571 34.49398654 512.41646403 29.32060426 502.06827271 C26.4214916 496.26899768 23.52434587 490.4687596 20.63194466 484.66613388 C17.92110753 479.2280727 15.20464813 473.79285867 12.4837265 468.35983658 C11.48428127 466.36172083 10.48690663 464.36256792 9.49170494 462.36233521 C8.13868121 459.6437039 6.77840938 456.92882699 5.41615295 454.21481323 C4.82127574 453.01297419 4.82127574 453.01297419 4.2143808 451.78685558 C2.46780706 447.84989582 2.46780706 447.84989582 -0.75 445.25 Z " fill="#0F0A0A" transform="translate(541.75,357.75)"/>
<path d="M0 0 C0 116.16 0 232.32 0 352 C-269.14705882 352 -269.14705882 352 -316 313 C-316.65355469 312.49210937 -317.30710937 311.98421875 -317.98046875 311.4609375 C-344.67098548 289.8314968 -352.14851829 252.27588871 -355.70141602 220.00488281 C-357.02607866 206.67377257 -357.18626595 193.41165706 -357.18530273 180.02490234 C-357.18747337 176.666209 -357.20564656 173.30785366 -357.22460938 169.94921875 C-357.33256155 128.87623829 -353.80579028 84.69877009 -328 51 C-327.19175781 49.91525391 -327.19175781 49.91525391 -326.3671875 48.80859375 C-300.20174423 16.26614546 -251.33976098 8.66063603 -212.5625 4.375 C-202.41162538 3.31798303 -192.24638148 2.52929086 -182.0625 1.875 C-180.88824463 1.79942871 -179.71398926 1.72385742 -178.50415039 1.64599609 C-119.12298968 -1.86683748 -59.31024296 0 0 0 Z " fill="#33A1E2" transform="translate(365,5)"/>
<path d="M0 0 C87.37410199 0 185.51055818 8.9114785 256 67 C257.01578125 67.81339844 258.0315625 68.62679687 259.078125 69.46484375 C272.75279458 80.56677819 285.3699909 93.12289507 295.78222656 107.34667969 C296.96314675 108.94996588 298.18032465 110.52634816 299.3984375 112.1015625 C336.10111142 160.32361897 349.47503871 223.91263706 355 283 C355.10441406 284.10585449 355.20882813 285.21170898 355.31640625 286.35107422 C356.7942569 302.75942553 357.11004105 319.04163665 357.05078125 335.50390625 C357.04669431 337.50231859 357.04298914 339.50073174 357.03967285 341.49914551 C357.03083732 346.33278438 357.0168789 351.1663828 357 356 C338.37516034 356.18558156 319.75015041 356.34921153 301.125 356.5 C300.39283123 356.50594854 299.66066245 356.51189708 298.90630674 356.51802588 C252.68115197 356.89233846 206.45712111 357.04804566 160.23046875 357.06640625 C159.09467762 357.06688611 157.95888649 357.06736597 156.78867745 357.06786036 C104.52579663 357.08865253 52.26283925 357.03256252 0 357 C0 239.19 0 121.38 0 0 Z " fill="#2F282E" transform="translate(719,715)"/>
<path d="M0 0 C2.24318028 0.93984799 3.49231941 1.95106467 5.21275628 3.66461033 C6.13479386 4.5721379 6.13479386 4.5721379 7.07545847 5.49799937 C8.0745421 6.50405172 8.0745421 6.50405172 9.09380925 7.53042835 C9.80847062 8.23829306 10.523132 8.94615776 11.25944978 9.67547292 C13.66117611 12.05815208 16.05199322 14.45148611 18.44297612 16.84494251 C20.15885175 18.55184552 21.87534309 20.25812977 23.59240544 21.96383899 C27.77530171 26.12294446 31.95095951 30.2892284 36.1228101 34.45940652 C39.51256209 37.84773363 42.90467173 41.23368207 46.29846585 44.61796039 C55.91550845 54.20858494 65.52623681 63.80547343 75.12895487 73.41044083 C75.64669321 73.92829904 76.16443155 74.44615725 76.69785893 74.97970814 C77.2162262 75.49819805 77.73459348 76.01668797 78.26866885 76.5508897 C86.67630957 84.95975066 95.09882502 93.35353563 103.52818499 101.74061909 C112.17857797 110.3479675 120.81778387 118.96640471 129.4453848 127.59660023 C134.29129529 132.44350808 139.14175096 137.28565962 144.00424969 142.11593097 C148.57428301 146.655869 153.12873393 151.21105793 157.6727792 155.77701038 C159.34662231 157.45400459 161.02564565 159.12584589 162.71006596 160.79221576 C165.00138583 163.06055618 167.2736165 165.34641716 169.54180729 167.63785022 C170.21901666 168.2996289 170.89622603 168.96140758 171.59395689 169.64324015 C175.89933363 174.04734265 175.89933363 174.04734265 176.3199054 177.33963817 C174.28673468 181.18927538 171.42578302 183.96897659 168.34599125 187.01385731 C167.6422101 187.72528955 166.93842895 188.4367218 166.21332109 189.1697126 C163.84679175 191.55692014 161.4661616 193.92954455 159.0853101 196.30246204 C157.38804442 198.00841951 155.69161755 199.71521187 153.99596989 201.42277759 C149.86277993 205.58000505 145.72015269 209.72767507 141.57259277 213.87055419 C138.20275653 217.23682589 134.83646903 220.60660695 131.47267735 223.97891849 C130.99411896 224.45866726 130.51556057 224.93841603 130.02250041 225.43270264 C129.0503672 226.40725931 128.0782364 227.38181838 127.10610798 228.35637982 C117.98869056 237.49555133 108.85826793 246.62164374 99.7238746 255.74384351 C91.36221189 264.09516096 83.0171059 272.46280226 74.67964205 280.8382725 C66.12208758 289.43453764 57.55351628 298.01967563 48.97282255 306.5928455 C44.15413233 311.40770543 39.33997761 316.22690246 34.53732884 321.05776829 C30.02377085 325.59757555 25.49482437 330.12164354 20.95504391 334.63523144 C19.28773213 336.29778954 17.62556603 337.96552575 15.96886456 339.63865703 C13.71366035 341.91461342 11.44094515 344.17146021 9.16264164 346.4242577 C8.50475392 347.09689399 7.84686619 347.76953029 7.16904247 348.46254951 C2.7916675 352.73682809 2.7916675 352.73682809 -0.49643695 353.15766281 C-4.3659016 351.11789456 -7.15578835 348.23462876 -10.21336544 345.13905567 C-10.92888124 344.4304854 -11.64439704 343.72191512 -12.38159513 342.99187303 C-14.78262047 340.60918035 -17.1690607 338.21239497 -19.55580318 335.81540149 C-21.27160527 334.10665451 -22.98824989 332.39875317 -24.70567501 330.69163746 C-28.88688922 326.53062618 -33.05859323 322.36023038 -37.22564201 318.18504491 C-40.6112893 314.79310097 -44.0006303 311.40489056 -47.39264476 308.01931423 C-47.87516889 307.53769176 -48.35769302 307.05606928 -48.85483909 306.55985219 C-49.83502948 305.58151296 -50.81522556 304.60317944 -51.79542728 303.62485156 C-60.9873185 294.44954108 -70.16651856 285.26161625 -79.34169634 276.06959692 C-87.74289017 267.65369643 -96.15867368 259.25256412 -104.58162217 250.85844126 C-113.2257555 242.24367123 -121.86067221 233.61976707 -130.48535681 224.98552442 C-131.46007433 224.00978432 -132.43480584 223.0340582 -133.4095515 222.05834621 C-133.88917246 221.57824886 -134.36879342 221.09815151 -134.86294835 220.60350576 C-138.24856735 217.21571909 -141.64014428 213.83396817 -145.03411663 210.45455211 C-149.59793002 205.91003966 -154.14856424 201.35259987 -158.69037426 196.78609508 C-160.36348294 195.10795388 -162.04090887 193.43410485 -163.72282588 191.76479191 C-166.00953279 189.4938764 -168.28044364 187.20828221 -170.54783809 184.9181084 C-171.22436534 184.25341689 -171.90089258 183.58872537 -172.59792066 182.90389168 C-173.19895694 182.29043336 -173.79999323 181.67697503 -174.41924274 181.04492706 C-175.20860282 180.25516244 -175.20860282 180.25516244 -176.01390958 179.44944298 C-176.99965084 177.83810657 -176.99965084 177.83810657 -176.83775741 175.83845574 C-175.8974578 173.59419754 -174.88561485 172.34608394 -173.17035377 170.62569946 C-172.26190115 169.70366188 -172.26190115 169.70366188 -171.33509594 168.76299727 C-170.32802042 167.76391363 -170.32802042 167.76391363 -169.30059993 166.74464649 C-168.23774452 165.67265443 -168.23774452 165.67265443 -167.15341729 164.57900596 C-164.76839349 162.17728355 -162.37272521 159.78646964 -159.97694576 157.39547962 C-158.26841354 155.67961122 -156.56050692 153.96311971 -154.85318172 152.2460503 C-150.69031797 148.06323238 -146.52032955 143.88760389 -142.34658917 139.71564563 C-138.95570047 136.3260636 -135.5673751 132.93393993 -132.18085849 129.53998989 C-131.20607625 128.56310852 -130.23129325 127.58622791 -129.25650948 126.60934806 C-128.77137198 126.12316702 -128.28623447 125.63698599 -127.78639583 125.1360722 C-118.60891993 115.93969004 -109.42148302 106.75330881 -100.23114119 97.56978688 C-91.81654154 89.16076672 -83.41523068 80.73860984 -75.01998552 72.31027075 C-66.40514103 63.66172988 -57.78109196 55.02246654 -49.14706868 46.39307094 C-44.2976102 41.54586078 -39.45199623 36.69494681 -34.61609638 31.83420604 C-30.07146642 27.26643093 -25.51404985 22.71167972 -20.94763935 18.16567653 C-19.26949193 16.49095816 -17.59564282 14.8119205 -15.92633617 13.12838978 C-13.65541797 10.8394547 -11.36981865 8.56630064 -9.07965267 6.29664844 C-8.08261539 5.28083439 -8.08261539 5.28083439 -7.06543595 4.24449885 C-6.45197762 3.64284586 -5.8385193 3.04119288 -5.20647132 2.42130798 C-4.41670671 1.63113479 -4.41670671 1.63113479 -3.61098725 0.8249985 C-1.99965084 -0.16189343 -1.99965084 -0.16189343 0 0 Z " fill="#5DD39D" transform="translate(542.9996508359909,5.161893427371979)"/>
</svg>
