<?xml version="1.0" encoding="UTF-8"?>
<!DOCTYPE svg PUBLIC "-//W3C//DTD SVG 1.1//EN" "http://www.w3.org/Graphics/SVG/1.1/DTD/svg11.dtd">
<svg xmlns="http://www.w3.org/2000/svg" version="1.1" width="1080px" height="1080px" style="shape-rendering:geometricPrecision; text-rendering:geometricPrecision; image-rendering:optimizeQuality; fill-rule:evenodd; clip-rule:evenodd" xmlns:xlink="http://www.w3.org/1999/xlink">
<g><path style="opacity:0.987" fill="#33a1e2" d="M 534.5,12.5 C 638.347,14.0419 734.681,41.5419 823.5,95C 923.423,159.952 993.256,248.785 1033,361.5C 1068,458.62 1074.34,557.62 1052,658.5C 1011.42,821.057 916.253,939.557 766.5,1014C 640.485,1071.57 511.152,1080.24 378.5,1040C 279.618,1005.99 198.118,947.828 134,865.5C 76.5959,791.723 38.5959,708.723 20,616.5C 3.727,471.255 37.3937,338.922 121,219.5C 195.755,119.988 294.255,56.4883 416.5,29C 455.555,20.4441 494.888,14.9441 534.5,12.5 Z M 513.5,98.5 C 636.006,99.793 743.006,140.626 834.5,221C 853.576,238.73 870.41,258.23 885,279.5C 895.075,294.722 901.408,311.388 904,329.5C 907.734,361.071 910.234,392.738 911.5,424.5C 911.005,470.142 901.505,513.809 883,555.5C 866.173,592.598 846.506,627.932 824,661.5C 783.739,714.727 731.906,752.227 668.5,774C 595.739,800.136 521.739,804.469 446.5,787C 418.55,779.859 393.55,767.193 371.5,749C 305.229,691.926 273.729,619.426 277,531.5C 279.426,486.129 290.759,443.129 311,402.5C 345.02,346.17 393.52,308.003 456.5,288C 501.315,273.707 545.982,274.041 590.5,289C 647.016,312.181 682.849,353.348 698,412.5C 710.037,477.216 693.203,533.049 647.5,580C 619.201,606.812 585.535,621.645 546.5,624.5C 488.439,622.771 455.772,593.105 448.5,535.5C 451.56,484.44 478.56,456.773 529.5,452.5C 533.579,480.131 537.412,507.798 541,535.5C 607.66,520.183 627.66,480.85 601,417.5C 586.31,384.81 560.977,367.81 525,366.5C 486.243,369.634 451.076,382.468 419.5,405C 394.476,426.516 377.643,453.349 369,485.5C 357.145,528.341 359.479,570.341 376,611.5C 383.826,627.994 394.659,642.161 408.5,654C 428.512,668.681 449.846,681.348 472.5,692C 518.527,710.622 564.86,711.288 611.5,694C 663.098,672.302 709.265,642.469 750,604.5C 776.582,560.421 792.582,512.755 798,461.5C 802.329,383.025 775.829,317.192 718.5,264C 670.348,220.608 613.681,197.608 548.5,195C 408.781,188.091 303.947,244.591 234,364.5C 213.23,401.711 196.564,440.711 184,481.5C 171.55,623.376 221.717,736.876 334.5,822C 377.08,852.785 424.08,874.119 475.5,886C 513.766,889.71 551.766,887.71 589.5,880C 662.344,867.063 730.01,841.063 792.5,802C 827.181,778.987 857.014,750.82 882,717.5C 912.333,670.5 942.667,623.5 973,576.5C 972.365,601.017 968.365,625.017 961,648.5C 918.802,788.029 831.636,888.529 699.5,950C 686.614,955.61 673.614,960.943 660.5,966C 580.079,982.097 500.412,979.097 421.5,957C 342.827,932.427 275.994,889.593 221,828.5C 182.557,785.657 152.557,737.323 131,683.5C 103.228,598.376 98.5611,512.043 117,424.5C 140.293,334.041 188.127,259.541 260.5,201C 300.716,167.542 345.383,141.209 394.5,122C 433.119,108.123 472.785,100.29 513.5,98.5 Z"/></g>
</svg>
