<?xml version="1.0" encoding="UTF-8"?>
<!DOCTYPE svg PUBLIC "-//W3C//DTD SVG 1.1//EN" "http://www.w3.org/Graphics/SVG/1.1/DTD/svg11.dtd">
<svg xmlns="http://www.w3.org/2000/svg" version="1.1" width="1080px" height="1080px" style="shape-rendering:geometricPrecision; text-rendering:geometricPrecision; image-rendering:optimizeQuality; fill-rule:evenodd; clip-rule:evenodd" xmlns:xlink="http://www.w3.org/1999/xlink">
<g><path style="opacity:0.988" fill="#33a1e2" d="M 249.5,169.5 C 295.979,166.623 341.646,171.289 386.5,183.5C 384.108,196.069 380.941,208.402 377,220.5C 355.082,203.744 330.249,194.244 302.5,192C 261.973,186.964 225.306,196.297 192.5,220C 162.538,245.847 149.371,278.681 153,318.5C 155.414,360.17 173.58,393.003 207.5,417C 219.633,425.79 232.3,433.79 245.5,441C 274.333,454.388 303.333,467.388 332.5,480C 370.334,497.065 405.334,518.399 437.5,544C 484.019,584.065 506.686,635.065 505.5,697C 503.307,781.757 464.307,842.757 388.5,880C 340.001,900.666 289.334,910.499 236.5,909.5C 205.602,909.345 175.102,906.011 145,899.5C 144.333,900.167 143.667,900.833 143,901.5C 141.832,890.826 141.665,880.159 142.5,869.5C 168.516,882.071 196.016,888.071 225,887.5C 257.648,888.132 287.815,879.965 315.5,863C 355.216,832.232 371.716,791.732 365,741.5C 362.329,711.323 349.496,686.489 326.5,667C 310.704,653.93 293.704,642.597 275.5,633C 250.002,620.946 224.335,609.279 198.5,598C 151.407,576.556 109.24,548.056 72,512.5C 41.5678,479.582 24.9011,440.582 22,395.5C 16.0631,292.856 61.2297,223.689 157.5,188C 187.541,178.025 218.208,171.859 249.5,169.5 Z"/></g>
<g><path style="opacity:0.992" fill="#33a1e2" d="M 636.5,170.5 C 657.493,167.906 671.326,176.573 678,196.5C 678.374,202.81 678.54,208.976 678.5,215C 692.344,220.726 706.344,226.059 720.5,231C 727.671,234.416 734.338,238.582 740.5,243.5C 748,223.915 762,216.749 782.5,222C 795.858,225.675 808.858,230.342 821.5,236C 827.048,238.072 832.715,239.738 838.5,241C 866.516,234.28 885.35,244.113 895,270.5C 897.486,277.44 899.819,284.44 902,291.5C 906.206,310.196 910.539,328.862 915,347.5C 917.608,355.325 920.608,362.991 924,370.5C 927.555,377.055 932.721,381.888 939.5,385C 944.968,389.467 950.135,394.3 955,399.5C 962.583,410.998 969.917,422.665 977,434.5C 979.917,436.393 983.084,436.893 986.5,436C 999.81,433.842 1012.14,429.175 1023.5,422C 1029.02,416.979 1034.69,412.146 1040.5,407.5C 1061.44,433.955 1062.94,461.621 1045,490.5C 1022.04,522.461 994.207,549.294 961.5,571C 946.699,584.601 937.366,601.268 933.5,621C 937.468,641.038 942.301,660.871 948,680.5C 951.903,710.865 939.403,731.032 910.5,741C 907,743.833 903.5,746.667 900,749.5C 899.333,750.5 899.333,751.5 900,752.5C 908.079,761.226 912.579,771.56 913.5,783.5C 913.098,798.402 906.098,808.902 892.5,815C 889.243,816.043 885.91,816.543 882.5,816.5C 882.142,820.509 881.642,824.509 881,828.5C 876.043,835.126 870.709,841.46 865,847.5C 859.761,856.307 854.761,865.307 850,874.5C 838.289,887.45 823.789,895.95 806.5,900C 791.553,903.324 776.553,906.324 761.5,909C 730.981,908.146 715.481,892.313 715,861.5C 696.1,837.481 685.433,810.148 683,779.5C 677.326,768.812 670.659,758.812 663,749.5C 652.58,735.07 648.913,719.07 652,701.5C 657.777,684.941 663.277,668.274 668.5,651.5C 667.83,644.316 666.33,637.316 664,630.5C 657.727,619.898 651.061,609.564 644,599.5C 634.913,580.382 631.746,560.382 634.5,539.5C 634.239,537.05 633.572,534.717 632.5,532.5C 618.856,534.006 607.356,529.672 598,519.5C 595.038,512.864 590.038,508.864 583,507.5C 573.937,511.854 564.437,515.021 554.5,517C 544.749,517.702 535.249,516.535 526,513.5C 506.222,525.202 486.389,525.369 466.5,514C 459.167,509.333 451.833,504.667 444.5,500C 430.419,483.584 414.753,468.917 397.5,456C 393.333,451.833 389.167,447.667 385,443.5C 384.182,437.098 384.516,430.765 386,424.5C 390.199,413.769 395.199,403.436 401,393.5C 403.062,388.669 403.729,383.669 403,378.5C 396.915,372.753 391.582,366.419 387,359.5C 383.731,351.177 383.731,342.843 387,334.5C 394.546,317.588 405.379,303.088 419.5,291C 429.404,283.464 439.57,276.298 450,269.5C 450.065,260.388 451.065,251.388 453,242.5C 458.333,231.833 466.333,223.833 477,218.5C 476.871,202.232 484.705,192.398 500.5,189C 510.873,187.177 520.539,189.011 529.5,194.5C 545.931,188.301 562.598,182.801 579.5,178C 598.459,174.063 617.459,171.563 636.5,170.5 Z"/></g>
</svg>
